<svg xmlns="http://www.w3.org/2000/svg" version="1.1" xmlns:xlink="http://www.w3.org/1999/xlink" width="512" height="512" x="0" y="0" viewBox="0 0 512 512" style="enable-background:new 0 0 512 512" xml:space="preserve" class="">
  <g>
    <linearGradient id="a" x1="168.38" x2="343.62" y1="168.38" y2="343.62" gradientTransform="rotate(45 256.068 255.972)" gradientUnits="userSpaceOnUse">
      <stop offset="0" stop-color="#91c553"></stop>
      <stop offset="1" stop-color="#60a113"></stop>
    </linearGradient>
    <linearGradient id="b" x1="187.16" x2="324.84" y1="187.16" y2="324.84" gradientTransform="rotate(-45 255.972 256.068)" gradientUnits="userSpaceOnUse">
      <stop offset="0" stop-color="#53ab46"></stop>
      <stop offset="1" stop-color="#107300"></stop>
    </linearGradient>
    <linearGradient xlink:href="#a" id="d" x1="199.68" x2="312.33" y1="199.67" y2="312.32"></linearGradient>
    <linearGradient xlink:href="#b" id="e" x1="215.57" x2="296.43" y1="215.57" y2="296.43"></linearGradient>
    <linearGradient xlink:href="#b" id="f" x1="334.8" x2="353.06" y1="158.94" y2="177.2"></linearGradient>
    <linearGradient xlink:href="#b" id="g" x1="158.94" x2="177.2" y1="334.8" y2="353.06"></linearGradient>
    <linearGradient id="c" x1="67.14" x2="444.86" y1="67.14" y2="444.86" gradientUnits="userSpaceOnUse">
      <stop offset="0" stop-color="#aeed64"></stop>
      <stop offset="1" stop-color="#78c918"></stop>
    </linearGradient>
    <linearGradient xlink:href="#b" id="h" x1="94.56" x2="417.44" y1="94.56" y2="417.44" gradientTransform="rotate(-90 256 256)"></linearGradient>
    <linearGradient xlink:href="#c" id="i" x1="134.24" x2="377.82" y1="134.18" y2="377.76"></linearGradient>
    <linearGradient xlink:href="#b" id="j" x1="212.11" x2="299.89" y1="212.11" y2="299.89"></linearGradient>
    <linearGradient xlink:href="#b" id="k" x1="381.1" x2="400.92" y1="246.09" y2="265.91"></linearGradient>
    <linearGradient xlink:href="#b" id="l" x1="111.08" x2="130.9" y1="246.09" y2="265.91"></linearGradient>
    <linearGradient xlink:href="#c" id="m" x1="231.68" x2="280.84" y1="230.56" y2="279.71"></linearGradient>
    <path d="M183.4 512c-3.85 0-7.48-1.5-10.2-4.22L4.22 338.8C1.5 336.08 0 332.45 0 328.6s1.5-7.48 4.22-10.2L318.4 4.23C321.12 1.51 324.75 0 328.6 0s7.48 1.5 10.2 4.23l168.98 168.98c5.62 5.62 5.62 14.77 0 20.4L193.6 507.78a14.342 14.342 0 0 1-10.2 4.22z" fill="#000000" opacity="1" data-original="#000000"></path>
    <rect width="453.16" height="247.82" x="29.42" y="132.09" fill="url(#a)" rx="4.43" transform="rotate(-45 255.972 256.068)" opacity="1" data-original="url(#a)"></rect>
    <path d="M183.4 476.28c-2.65 0-5.2-1.05-7.07-2.93L38.65 335.67c-3.91-3.91-3.91-10.24 0-14.14L321.53 38.65c1.95-1.95 4.51-2.93 7.07-2.93s5.12.98 7.07 2.93l137.69 137.69c1.88 1.88 2.93 4.42 2.93 7.07s-1.05 5.2-2.93 7.07L190.47 473.35a9.99 9.99 0 0 1-7.07 2.93z" fill="#000000" opacity="1" data-original="#000000"></path>
    <path fill="url(#b)" d="M158.64 55.97h194.72v400.05H158.64z" transform="rotate(45 256.068 255.972)" opacity="1" data-original="url(#b)"></path>
    <path d="M158.56 424.64a14.2 14.2 0 0 1-10.1-4.19l-56.92-56.92a14.296 14.296 0 0 1-4.15-11.12c.3-4.18 2.41-8.03 5.78-10.56.77-.58 1.51-1.25 2.19-1.97 5.8-6.2 5.91-16 .24-22.31-.75-.83-1.57-1.58-2.44-2.24a14.44 14.44 0 0 1-5.74-10.53c-.3-4.17 1.23-8.26 4.19-11.21L293.59 91.61c2.72-2.72 6.34-4.22 10.19-4.22 4.52 0 8.84 2.16 11.55 5.78.66.88 1.41 1.7 2.24 2.44 2.99 2.69 6.9 4.17 11.02 4.17 4.25 0 8.26-1.56 11.3-4.4.73-.68 1.39-1.42 1.97-2.2 2.81-3.75 7.02-5.89 11.55-5.89 3.78 0 7.38 1.51 10.13 4.26l56.92 56.92a14.31 14.31 0 0 1 4.15 11.12c-.3 4.18-2.41 8.03-5.78 10.56-.78.58-1.52 1.25-2.2 1.97-5.8 6.21-5.91 16.01-.24 22.32.75.83 1.57 1.58 2.44 2.24 3.35 2.52 5.45 6.35 5.74 10.53.3 4.17-1.23 8.26-4.18 11.21L218.42 420.39a14.319 14.319 0 0 1-10.19 4.22c-4.52 0-8.84-2.16-11.55-5.78-.65-.87-1.41-1.69-2.24-2.44-2.99-2.69-6.9-4.17-11.01-4.17s-8.26 1.56-11.3 4.4c-.73.68-1.39 1.42-1.97 2.2-2.73 3.64-7.06 5.82-11.58 5.82z" fill="#000000" opacity="1" data-original="#000000"></path>
    <path fill="url(#a)" d="m356.47 98.62 56.92 56.92c1.9 1.9 1.59 4.99-.55 6.6-1.24.93-2.41 1.98-3.51 3.15-9.32 9.96-9.49 25.68-.37 35.83 1.2 1.34 2.5 2.52 3.88 3.56a4.426 4.426 0 0 1 .49 6.67L211.36 413.32c-1.91 1.91-5.05 1.67-6.67-.49a26.462 26.462 0 0 0-3.56-3.88c-10.15-9.11-25.87-8.94-35.83.38-1.17 1.1-2.22 2.27-3.15 3.51-1.61 2.15-4.7 2.45-6.6.55l-56.92-56.92c-1.9-1.9-1.59-4.99.55-6.6a26.57 26.57 0 0 0 3.51-3.15c9.32-9.96 9.49-25.68.38-35.83-1.2-1.34-2.5-2.52-3.88-3.56a4.426 4.426 0 0 1-.49-6.67L300.66 98.69c1.91-1.91 5.05-1.67 6.67.49 1.03 1.38 2.22 2.68 3.56 3.88 10.15 9.12 25.87 8.94 35.83-.37 1.17-1.1 2.22-2.27 3.15-3.51 1.69-2.26 4.61-2.55 6.6-.55z" opacity="1" data-original="url(#a)"></path>
    <path d="M256 323.17c-17.94 0-34.81-6.99-47.5-19.67s-19.67-29.55-19.67-47.5 6.99-34.81 19.67-47.5 29.55-19.67 47.5-19.67 34.81 6.99 47.5 19.67 19.67 29.55 19.67 47.5-6.99 34.81-19.67 47.5-29.55 19.67-47.5 19.67z" fill="#000000" opacity="1" data-original="#000000"></path>
    <circle cx="256" cy="256" r="57.17" fill="url(#e)" opacity="1" data-original="url(#e)"></circle>
    <path d="M343.93 190.98c-6.13 0-11.88-2.38-16.2-6.71-4.32-4.32-6.71-10.08-6.71-16.2s2.38-11.88 6.71-16.2c4.32-4.32 10.08-6.71 16.21-6.71s11.88 2.38 16.2 6.71c8.93 8.94 8.93 23.47 0 32.41a22.777 22.777 0 0 1-16.2 6.71z" fill="#000000" opacity="1" data-original="#000000"></path>
    <path fill="url(#b)" d="M353.06 177.2c-5.04 5.04-13.23 5.04-18.27 0s-5.04-13.23 0-18.27 13.23-5.04 18.27 0 5.04 13.23 0 18.27z" opacity="1" data-original="url(#b)"></path>
    <path d="M168.07 366.84c-6.13 0-11.88-2.38-16.2-6.71-8.93-8.94-8.93-23.47 0-32.41 4.32-4.32 10.08-6.71 16.21-6.71s11.88 2.38 16.2 6.71 6.71 10.08 6.71 16.2-2.38 11.88-6.71 16.2a22.777 22.777 0 0 1-16.2 6.71z" fill="#000000" opacity="1" data-original="#000000"></path>
    <path fill="url(#b)" d="M177.2 353.06c-5.04 5.04-13.23 5.04-18.27 0s-5.04-13.23 0-18.27 13.23-5.04 18.27 0 5.04 13.23 0 18.27z" opacity="1" data-original="url(#b)"></path>
    <g data-name="Money">
      <rect width="289.06" height="512" x="111.47" rx="14.8" transform="rotate(90 256 256)" fill="#000000" opacity="1" data-original="#000000"></rect>
      <rect width="492" height="269.06" x="10" y="121.47" fill="url(#c)" rx="4.8" opacity="1" data-original="url(#c)"></rect>
      <rect width="231.41" height="454.34" x="140.3" y="28.83" rx="10" transform="rotate(90 256 256)" fill="#000000" opacity="1" data-original="#000000"></rect>
      <path fill="url(#b)" d="M150.3 38.83h211.41v434.34H150.3z" transform="rotate(90 256 256)" opacity="1" data-original="url(#b)"></path>
      <path d="M100.94 352.48c-4.29 0-8.36-1.86-11.17-5.1a14.795 14.795 0 0 1-3.47-11.81c.17-1.23.23-2.5.16-3.76-.52-9.63-8.49-17.43-18.14-17.76-.22 0-.44-.01-.66-.01-.91 0-1.82.06-2.7.19-.71.1-1.42.15-2.14.15-3.87 0-7.52-1.47-10.3-4.14-2.89-2.78-4.48-6.53-4.48-10.55V212.3c0-8.1 6.63-14.69 14.78-14.69.71 0 1.43.05 2.13.15.88.13 1.79.19 2.7.19.22 0 .44 0 .66-.01 9.66-.32 17.62-8.12 18.14-17.76.07-1.26.01-2.53-.16-3.77-.61-4.25.66-8.56 3.47-11.81 2.81-3.24 6.88-5.1 11.17-5.1h310.13c4.29 0 8.36 1.86 11.17 5.1 2.82 3.25 4.08 7.55 3.47 11.81-.17 1.23-.23 2.49-.16 3.77.52 9.63 8.48 17.43 18.14 17.75.22 0 .44.01.66.01.91 0 1.82-.06 2.7-.19.74-.11 1.49-.16 2.23-.16 8.23 0 14.68 6.46 14.68 14.7v87.39c0 8.1-6.63 14.69-14.78 14.69-.71 0-1.43-.05-2.14-.15-.88-.13-1.79-.19-2.7-.19-.22 0-.44 0-.66.01-9.65.32-17.62 8.12-18.14 17.76-.07 1.27-.01 2.53.16 3.76.61 4.25-.66 8.56-3.47 11.81-2.81 3.24-6.88 5.1-11.17 5.1H100.94z" fill="#000000" opacity="1" data-original="#000000"></path>
      <path fill="url(#c)" d="M453.96 212.3v87.39c0 2.91-2.61 5.06-5.49 4.64-1.66-.24-3.37-.33-5.11-.28-14.8.49-27 12.43-27.79 27.22-.1 1.95-.02 3.86.25 5.71.41 2.9-1.82 5.49-4.75 5.49H100.94c-2.93 0-5.16-2.59-4.75-5.49.26-1.85.35-3.76.25-5.71-.79-14.79-12.99-26.72-27.79-27.22-1.74-.06-3.45.04-5.11.28-2.88.41-5.49-1.73-5.49-4.64V212.3c0-2.91 2.61-5.06 5.49-4.64 1.66.24 3.37.33 5.11.28 14.8-.49 27-12.43 27.79-27.22.1-1.95.02-3.86-.25-5.71-.41-2.9 1.82-5.49 4.75-5.49h310.12c2.93 0 5.16 2.59 4.75 5.49-.26 1.85-.35 3.76-.25 5.71.79 14.79 12.99 26.72 27.79 27.22 1.74.06 3.45-.04 5.11-.28 3.03-.44 5.49 1.58 5.49 4.64z" opacity="1" data-original="url(#c)"></path>
      <circle cx="256" cy="256" r="72.07" fill="#000000" opacity="1" data-original="#000000"></circle>
      <circle cx="256" cy="256" r="62.07" fill="url(#j)" opacity="1" data-original="url(#j)"></circle>
      <circle cx="391.01" cy="256" r="24.02" fill="#000000" opacity="1" data-original="#000000"></circle>
      <path fill="url(#b)" d="M391.01 270.02c-7.73 0-14.02-6.29-14.02-14.02s6.29-14.02 14.02-14.02 14.02 6.29 14.02 14.02-6.29 14.02-14.02 14.02z" opacity="1" data-original="url(#b)"></path>
      <circle cx="120.99" cy="256" r="24.02" fill="#000000" opacity="1" data-original="#000000"></circle>
      <path fill="url(#b)" d="M120.99 270.02c-7.73 0-14.02-6.29-14.02-14.02s6.29-14.02 14.02-14.02 14.02 6.29 14.02 14.02-6.29 14.02-14.02 14.02z" opacity="1" data-original="url(#b)"></path>
    </g>
    <path d="M257.41 307.49c-.39 0-.77-.02-1.15-.07-.38.04-.76.07-1.15.07h-5.65c-5.52 0-10-4.48-10-10v-1.26c-.39-.16-.78-.32-1.16-.49-6.17-2.73-10.96-6.65-14.24-11.66-3.3-5.02-4.97-10.8-4.97-17.18 0-4.99 3.66-9.13 8.44-9.88-5.07-5.93-6.42-12.35-6.42-17.47 0-5.93 1.78-11.27 5.29-15.87 3.19-4.19 7.58-7.45 13.06-9.7v-1.2c0-5.52 4.48-10 10-10h5.65c.39 0 .77.02 1.15.07.38-.04.76-.07 1.15-.07h5.65c5.52 0 10 4.48 10 10v1.07l.84.36c5.54 2.49 9.95 6.16 13.11 10.9 3.22 4.83 4.85 10.35 4.85 16.42 0 4.69-3.23 8.63-7.59 9.71 6.09 6.49 7.59 13.82 7.59 19.48 0 9-3.66 16.52-10.58 21.76-2.43 1.84-5.18 3.33-8.22 4.45v.56c0 5.52-4.48 10-10 10z" fill="#000000" opacity="1" data-original="#000000"></path>
    <path fill="url(#c)" d="M271.01 253.48c-2.2-1.27-4.85-2.47-7.95-3.62v-14.84c.07.06.14.11.21.17 1.67 1.5 2.5 3.62 2.5 6.34h16.09c0-4.07-1.06-7.7-3.17-10.87s-5.08-5.61-8.89-7.33c-2.09-.94-4.34-1.62-6.74-2.05v-8.5h-5.65v7.98h-.55c-.59 0-1.17.01-1.74.03v-8.01h-5.65v8.64c-2.09.39-4.07.96-5.94 1.71-3.95 1.58-7.01 3.78-9.17 6.62-2.16 2.83-3.24 6.11-3.24 9.81 0 7.45 4.34 13.3 13.01 17.56 1.53.76 3.31 1.53 5.34 2.31v16.41c-.53-.29-1-.63-1.41-1.01-1.85-1.7-2.78-4.34-2.78-7.93H229.1c0 4.41 1.11 8.31 3.33 11.7s5.53 6.05 9.93 8c2.24.99 4.61 1.73 7.11 2.21v8.68h5.65v-8.02c.65.03 1.31.04 1.97.04h.32v7.98h5.65v-8.36c4.92-.67 8.98-2.2 12.18-4.63 4.41-3.34 6.62-7.94 6.62-13.79 0-7.32-3.62-13.07-10.85-17.23zm-14.52-20.54c.32 0 .62.01.92.03v14.97c-.82-.29-1.59-.58-2.3-.86V233c.44-.03.9-.06 1.37-.06zm-9.33 6.76c0-1.88.77-3.44 2.31-4.69V244c-1.54-1.3-2.31-2.73-2.31-4.3zm9.93 37.69c-.69 0-1.35-.03-1.97-.07v-15.87c.82.28 1.58.56 2.3.84v15.09h-.32zm6.32-1.72c-.11.08-.23.16-.35.23v-10.72c.05.04.11.08.16.12 1.67 1.32 2.5 3.16 2.5 5.52 0 2.08-.77 3.7-2.32 4.85z" data-name="Icon" opacity="1" data-original="url(#c)"></path>
  </g>
</svg>