<svg xmlns="http://www.w3.org/2000/svg" version="1.1" xmlns:xlink="http://www.w3.org/1999/xlink" width="512" height="512" x="0" y="0" viewBox="0 0 128 128" style="enable-background:new 0 0 512 512" xml:space="preserve" class="">
  <g>
    <path fill="#fb4a59" d="M121.5 41c0 33.75-31.83 65-57.5 80.5C38.33 106 6.5 74.75 6.5 41c0-14 6.33-34.5 28.75-34.5S64 24.19 64 24.19 70.33 6.5 92.75 6.5 121.5 27 121.5 41z" opacity="1" data-original="#fb4a59" class=""></path>
    <g fill="#12304c">
      <path d="M122.8 34.274a1.75 1.75 0 1 0-3.469.468A47.052 47.052 0 0 1 119.75 41a1.75 1.75 0 0 0 3.5 0 50.542 50.542 0 0 0-.45-6.726zM35.25 8.25c20.854 0 26.858 15.858 27.1 16.529A1.748 1.748 0 0 0 64 25.938a1.753 1.753 0 0 0 1.645-1.154c.246-.675 6.25-16.534 27.1-16.534 14.617 0 21.228 9.24 24.2 16.991a1.75 1.75 0 1 0 3.268-1.253C116.853 15.212 109.355 4.75 92.75 4.75 75.5 4.75 67.2 14.9 64 20.306 60.8 14.9 52.5 4.75 35.25 4.75a1.75 1.75 0 0 0 0 3.5z" fill="#12304c" opacity="1" data-original="#12304c" class=""></path>
      <path d="M120.937 49.029a1.747 1.747 0 0 0-2.026 1.421c-5.134 29.208-32.572 55.264-54.911 69C36.1 102.311 8.25 71.612 8.25 41c0-11.253 4.123-25.167 15.692-30.47a1.75 1.75 0 1 0-1.458-3.182C9.409 13.342 4.75 28.662 4.75 41c0 32.307 29.3 64.462 58.345 82a1.751 1.751 0 0 0 1.81 0c23.124-13.962 52.045-41.182 57.453-71.943a1.75 1.75 0 0 0-1.421-2.028z" fill="#12304c" opacity="1" data-original="#12304c" class=""></path>
      <path d="M103.344 73.38a113.792 113.792 0 0 1-16.488 20.474 1.75 1.75 0 0 0 2.472 2.479 117.33 117.33 0 0 0 16.993-21.11 1.75 1.75 0 1 0-2.977-1.842z" fill="#12304c" opacity="1" data-original="#12304c" class=""></path>
    </g>
  </g>
</svg>