<svg xmlns="http://www.w3.org/2000/svg" version="1.1" xmlns:xlink="http://www.w3.org/1999/xlink" width="512" height="512" x="0" y="0" viewBox="0 0 512.002 512.002" style="enable-background:new 0 0 512 512" xml:space="preserve" class=""><g><path d="M390.093 142.22c0 15.255-10.152 29.825-25.407 29.825v20.988H123.875v-23.197c-15.255 0-27.616-12.361-27.616-27.616 0-12.681 8.55-23.363 20.204-26.6a27.608 27.608 0 0 1-1.425-8.749c0-15.255 12.361-27.616 27.616-27.616.276 0 .542.011.806.022a27.992 27.992 0 0 1-.806-6.65c0-15.255 12.361-27.616 27.616-27.616 9.843 0 18.469 5.148 23.363 12.891a27.495 27.495 0 0 1 17.508-6.263 27.551 27.551 0 0 1 14.747 4.264c2.176-13.068 13.532-23.042 27.229-23.042 14.725 0 26.754 11.522 27.572 26.037a27.5 27.5 0 0 1 12.195-2.839c11.853 0 21.971 7.478 25.881 17.973 5.049-5.611 12.372-9.135 20.513-9.135 15.255 0 27.616 12.361 27.616 27.616 0 9.931-5.236 18.624-13.101 23.496a27.494 27.494 0 0 1 8.683-1.403c15.256-.001 27.617 12.359 27.617 27.614z" style="" fill="#fddb87" data-original="#fddb87"></path><path d="M159.441 193.034v-4.587c-15.255 0-27.616-12.361-27.616-27.616 0-9.557 4.856-17.98 12.238-22.934 4.024-2.701 6.549-7.128 6.541-11.974l-.001-.439c0-15.255 12.361-27.616 27.616-27.616.276 0-.229-6.575.223-10.135 1.663-13.091 12.647-23.337 25.823-24.065a27.524 27.524 0 0 1 20.131 7.129c3.074 2.795 7.515 3.384 11.326 1.728a27.495 27.495 0 0 1 10.984-2.272c1.808 0 3.574.174 5.284.507 5.128.996 10.343-1.452 13.044-5.924a27.74 27.74 0 0 1 9.695-9.574c3.014-1.769 4.015-5.65 2.255-8.671-4.784-8.209-13.678-13.728-23.867-13.728-13.697 0-25.054 9.975-27.229 23.043a27.549 27.549 0 0 0-14.747-4.264 27.491 27.491 0 0 0-17.508 6.263c-5.156-8.158-14.456-13.435-24.954-12.846-13.174.739-24.15 10.991-25.804 24.082a27.84 27.84 0 0 0 .586 10.139 19.231 19.231 0 0 0-.806-.022c-15.255 0-27.616 12.361-27.616 27.616 0 3.059.509 5.998 1.425 8.749-11.654 3.237-20.204 13.918-20.204 26.6 0 15.255 12.361 27.616 27.616 27.616v23.197h35.565v-.002z" style="" fill="#efba5b" data-original="#efba5b"></path><path d="M400.034 195.287v14.316l-3.568 36.806-11.897 124.471-.188.265-8.539 88.261c-.994 11.168-10.339 19.729-21.552 19.729H148.045c-11.201 0-20.547-8.538-21.552-19.696l-8.716-88.106-12.306-124.46-3.689-37.271v-14.316c0-13.477 10.484-24.953 23.948-25.44 14.14-.498 25.76 10.815 25.76 24.843 0-13.731 11.123-24.854 24.854-24.854s24.854 11.124 24.854 24.854c0-13.731 11.123-24.854 24.854-24.854s24.854 11.124 24.854 24.854c0-13.731 11.123-24.854 24.854-24.854s24.854 11.124 24.854 24.854c0-13.731 11.124-24.854 24.854-24.854 13.731 0 24.854 11.124 24.854 24.854 0-14.029 11.621-25.341 25.76-24.843 13.47.488 23.952 11.965 23.952 25.441z" style="" fill="#dddbc7" data-original="#dddbc7"></path><path d="M268.169 422.669c-11.201 0-20.547-8.539-21.552-19.696l-8.716-88.106-12.306-124.46-2.024-20.447c-12.565 1.244-22.373 11.838-22.373 24.73 0-13.731-11.124-24.854-24.854-24.854-13.73 0-24.854 11.123-24.854 24.854 0-14.028-11.621-25.341-25.76-24.843-13.466.486-23.948 11.963-23.948 25.44v14.317l3.689 37.27 12.306 124.46 8.716 88.106c1.005 11.157 10.35 19.696 21.552 19.696h206.247c11.212 0 20.558-8.561 21.552-19.729l3.554-36.737H268.169z" style="" fill="#cec9a7" data-original="#cec9a7"></path><path d="M354.292 479.135c11.212 0 20.558-8.561 21.552-19.729l8.539-88.261.188-.265 11.897-124.471 3.568-36.806v-14.316c0-13.477-10.483-24.953-23.948-25.44-14.139-.497-25.76 10.815-25.76 24.843 0-1.79-18.745 284.444-18.745 284.444l22.709.001z" style="" fill="#ed3124" data-original="#ed3124"></path><path d="M379.397 422.669h-44.115c-2.177 33.208-3.7 56.466-3.7 56.466h22.71c3.504 0 6.826-.836 9.767-2.327a21.695 21.695 0 0 0 6.228-4.74 21.588 21.588 0 0 0 5.557-12.662l3.553-36.737zM168.001 479.135h42.011s-8.813-286.356-8.813-284.444c0-13.731-11.124-24.854-24.854-24.854-13.73 0-24.854 11.124-24.854 24.854 0-1.585 16.51 284.444 16.51 284.444z" style="" fill="#e00e0e" data-original="#e00e0e"></path><path d="M284.107 479.688h-33.751s.553-286.356.553-284.444c0-13.73 11.124-24.854 24.854-24.854s24.854 11.124 24.854 24.854c0-1.585-16.51 284.444-16.51 284.444z" style="" fill="#ed3124" data-original="#ed3124"></path><path d="m250.484 413.468-.127 65.667h33.782l3.262-56.466H268.17c-7.278 0-13.754-3.617-17.686-9.201z" style="" fill="#e00e0e" data-original="#e00e0e"></path><path d="M437.592 262.892v92.259c0 8.075-6.55 14.625-14.625 14.625H265.81c-.375 0-.729-.21-.917-.542l-6.473-19.685c-2.386-7.246-12.637-7.246-15.023 0l-6.473 19.685a1.066 1.066 0 0 1-.917.542H78.85c-8.075 0-14.625-6.55-14.625-14.625v-92.259c0-8.075 6.55-14.625 14.625-14.625h156.019c1.823 0 3.579.729 4.86 2.021l4.419 4.441a9.54 9.54 0 0 0 13.521 0l4.419-4.441a6.854 6.854 0 0 1 4.86-2.021h156.019c8.075-.002 14.625 6.55 14.625 14.625z" style="" fill="#dddddd" data-original="#dddddd"></path><path d="M250.908 262.891c0-1.916.379-3.741 1.049-5.418a9.525 9.525 0 0 1-7.81-2.745l-4.419-4.441a6.855 6.855 0 0 0-4.86-2.022H78.85c-8.075 0-14.625 6.55-14.625 14.625v92.259c0 8.075 6.55 14.625 14.625 14.625h157.156c.375 0 .729-.209.917-.542l6.473-19.685c1.193-3.623 4.352-5.435 7.511-5.435l.001-81.221z" style="" fill="#cccbc6" data-original="#cccbc6"></path><path d="M221.083 283.184v51.675a9.503 9.503 0 0 1-9.511 9.51H103.561a9.503 9.503 0 0 1-9.51-9.51v-51.675a9.503 9.503 0 0 1 9.51-9.51h108.012a9.501 9.501 0 0 1 9.51 9.51z" style="" fill="#128ca0" data-original="#128ca0"></path><path d="M407.767 283.184v51.675a9.503 9.503 0 0 1-9.511 9.51H290.245a9.503 9.503 0 0 1-9.51-9.51v-51.675a9.503 9.503 0 0 1 9.51-9.51h108.012a9.501 9.501 0 0 1 9.51 9.51z" style="" fill="#ed3124" data-original="#ed3124"></path><path d="M211.572 273.672H103.561c-5.253 0-9.511 4.259-9.511 9.511v5.567h57.298c30.718 0 55.619 24.901 55.619 55.619h4.605c5.253 0 9.51-4.259 9.51-9.51v-51.675a9.51 9.51 0 0 0-9.51-9.512z" style="" fill="#00818e" data-original="#00818e"></path><path d="M398.256 273.672H290.245c-5.253 0-9.51 4.259-9.51 9.51v5.567h57.298c30.718 0 55.619 24.901 55.619 55.619h4.605c5.253 0 9.51-4.259 9.51-9.51v-51.675c0-5.252-4.258-9.511-9.511-9.511z" style="" fill="#e00e0e" data-original="#e00e0e"></path><path d="M481.295 421.694c12.814 0 23.197 10.383 23.197 23.197s-10.383 23.197-23.197 23.197c-2.861 0-5.6-.542-8.13-1.492-3.866 7.445-11.621 12.538-20.591 12.538-12.814 0-23.197-10.383-23.197-23.197 0-4.617 1.37-8.904 3.689-12.527a23.211 23.211 0 0 1-.375-4.043c0-12.814 10.383-23.197 23.197-23.197 6.605 0 12.549 2.773 16.768 7.202a23.217 23.217 0 0 1 8.639-1.678z" style="" fill="#fddb87" data-original="#fddb87"></path><path d="M459.522 456.52c0-4.617 1.37-8.904 3.689-12.527a23.209 23.209 0 0 1-.375-4.042c0-7.208 3.286-13.648 8.442-17.902-4.091-3.648-9.472-5.877-15.39-5.877-12.814 0-23.197 10.383-23.197 23.197 0 1.381.143 2.729.375 4.043-2.32 3.623-3.689 7.91-3.689 12.527 0 12.814 10.383 23.197 23.197 23.197a23.047 23.047 0 0 0 14.727-5.288c-4.77-4.249-7.779-10.435-7.779-17.328z" style="" fill="#efba5b" data-original="#efba5b"></path><path d="M392.418 439.451c9.061 9.061 9.061 23.745 0 32.806s-23.745 9.061-32.806 0a23.093 23.093 0 0 1-4.694-6.803c-7.999 2.531-17.083.649-23.425-5.694-9.061-9.061-9.061-23.745 0-32.806 3.265-3.265 7.264-5.327 11.467-6.249a23.293 23.293 0 0 1 2.593-3.124c9.061-9.061 23.745-9.061 32.806 0 4.671 4.671 6.913 10.834 6.764 16.95a23.182 23.182 0 0 1 7.295 4.92z" style="" fill="#fddb87" data-original="#fddb87"></path><path d="M359.63 444.935c3.265-3.265 7.264-5.327 11.467-6.249a23.293 23.293 0 0 1 2.593-3.124 23.053 23.053 0 0 1 10.99-6.131 22.992 22.992 0 0 0-6.322-11.851c-9.061-9.061-23.745-9.061-32.806 0a23.218 23.218 0 0 0-2.593 3.124c-4.203.922-8.202 2.983-11.467 6.249-9.061 9.061-9.061 23.745 0 32.806 5.917 5.916 14.218 7.949 21.799 6.141-1.467-7.347.641-15.267 6.339-20.965z" style="" fill="#efba5b" data-original="#efba5b"></path><path d="M82.624 439.368c0 4.617-1.37 8.904-3.689 12.527.232 1.314.375 2.662.375 4.043 0 12.814-10.383 23.197-23.197 23.197-6.605 0-12.549-2.773-16.768-7.202a23.19 23.19 0 0 1-8.638 1.679c-12.814 0-23.197-10.383-23.197-23.197s10.383-23.197 23.197-23.197c2.861 0 5.6.542 8.13 1.492 3.866-7.445 11.621-12.538 20.591-12.538 12.812-.001 23.196 10.382 23.196 23.196z" style="" fill="#fddb87" data-original="#fddb87"></path><path d="M37.344 465.567c0-12.814 10.383-23.197 23.197-23.197 2.861 0 5.6.542 8.13 1.492a23.281 23.281 0 0 1 12.952-11.238c-2.889-9.521-11.731-16.451-22.198-16.451-8.97 0-16.724 5.093-20.591 12.538a23.09 23.09 0 0 0-8.13-1.492c-12.814 0-23.197 10.383-23.197 23.197s10.383 23.197 23.197 23.197a23.15 23.15 0 0 0 7.636-1.303 23.284 23.284 0 0 1-.996-6.743z" style="" fill="#efba5b" data-original="#efba5b"></path><path d="M211.572 266.164H103.561c-9.384 0-17.019 7.635-17.019 17.02v51.675c0 9.384 7.634 17.019 17.019 17.019h108.012c9.384 0 17.019-7.634 17.019-17.019v-51.675c-.001-9.384-7.635-17.02-17.02-17.02zm2.002 68.695a2.004 2.004 0 0 1-2.002 2.002H103.561a2.004 2.004 0 0 1-2.002-2.002v-51.675c0-1.105.898-2.003 2.002-2.003h108.012c1.104 0 2.002.898 2.002 2.003v51.675zM290.245 351.877h108.012c9.384 0 17.019-7.634 17.019-17.019v-51.675c0-9.384-7.634-17.02-17.019-17.02h-23.544a7.507 7.507 0 0 0-7.508 7.508 7.507 7.507 0 0 0 7.508 7.508h23.544c1.104 0 2.002.898 2.002 2.003v51.675a2.004 2.004 0 0 1-2.002 2.002H290.245a2.004 2.004 0 0 1-2.002-2.002v-51.675c0-1.105.898-2.003 2.002-2.003h48.699a7.507 7.507 0 0 0 7.508-7.508 7.507 7.507 0 0 0-7.508-7.508h-48.699c-9.384 0-17.019 7.635-17.019 17.02v51.675c-.001 9.385 7.634 17.019 17.019 17.019zM169.454 122.135a20.239 20.239 0 0 1 7.257 1.038 7.501 7.501 0 0 0 6.82-1.04 7.51 7.51 0 0 0 3.093-6.166l-.008-.311a20.13 20.13 0 0 1 6.813-15.025 7.507 7.507 0 0 0 1.195-9.915 22.32 22.32 0 0 1-.493-.745 7.507 7.507 0 0 0-11.114-1.794c-3.632 2.982-8.04 4.558-12.748 4.558-.111 0-.221-.005-.331-.009l-.262-.009a7.537 7.537 0 0 0-6.062 2.791 7.51 7.51 0 0 0-1.445 6.516 20.122 20.122 0 0 1-.22 10.5c-.678 2.319-.198 4.823 1.289 6.728s3.806 2.987 6.216 2.883zM259.226 131.728a7.507 7.507 0 0 0 6.221 3.58l.179.002a7.508 7.508 0 0 0 6.205-3.282 20.117 20.117 0 0 1 16.635-8.811c2.518 0 4.982.466 7.324 1.382a7.509 7.509 0 0 0 10.215-6.315 19.979 19.979 0 0 1 1.225-5.309 7.51 7.51 0 0 0-9.005-9.914c-1.747.48-3.545.724-5.342.724a20.003 20.003 0 0 1-11.018-3.292 7.511 7.511 0 0 0-6.88-.71 7.512 7.512 0 0 0-4.541 5.217 20.097 20.097 0 0 1-10.369 13.139 7.506 7.506 0 0 0-2.393 11.416 20.072 20.072 0 0 1 1.544 2.173zM481.295 414.186c-2.298 0-4.572.257-6.801.768-5.316-4.084-11.772-6.291-18.604-6.291-16.932 0-30.706 13.775-30.706 30.706 0 .828.037 1.661.111 2.509a30.631 30.631 0 0 0-3.425 14.061c0 16.931 13.774 30.706 30.706 30.706 9.42 0 18.132-4.266 23.895-11.434 1.595.258 3.207.387 4.825.387 16.932 0 30.706-13.775 30.706-30.706s-13.776-30.706-30.707-30.706zm0 46.395a15.58 15.58 0 0 1-5.492-1.012 7.506 7.506 0 0 0-9.302 3.569c-2.719 5.236-8.056 8.488-13.927 8.488-8.651 0-15.689-7.038-15.689-15.689 0-2.987.866-5.918 2.504-8.478a7.502 7.502 0 0 0 1.071-5.354 15.68 15.68 0 0 1-.261-2.738c0-8.651 7.039-15.689 15.689-15.689 4.315 0 8.339 1.731 11.332 4.872a7.511 7.511 0 0 0 8.23 1.791 15.625 15.625 0 0 1 5.844-1.14c8.652 0 15.689 7.038 15.689 15.689s-7.037 15.691-15.688 15.691z" fill="#000000" opacity="1" data-original="#000000"></path><path d="M392.375 429.875a30.227 30.227 0 0 0-4.877-12.953l3.834-39.638h31.635c12.204 0 22.133-9.929 22.133-22.133v-92.259a22.03 22.03 0 0 0-4.966-13.955l-32.524-55.29a9.178 9.178 0 0 0-.119-.195c-.659-11.773-7.593-22.084-17.431-27.369 4.763-6.609 7.54-15.056 7.54-23.859 0-16.504-11.442-30.387-26.809-34.13 2.347-4.751 3.612-10.055 3.612-15.579 0-19.368-15.756-35.125-35.124-35.125a35.14 35.14 0 0 0-18.339 5.175c-6.537-8.641-16.897-14.011-28.056-14.011-2.207 0-4.379.2-6.507.601-4.727-13.895-17.899-23.797-33.259-23.797-13.994 0-26.227 8.124-31.85 20.268a35.135 35.135 0 0 0-10.126-1.49 35.19 35.19 0 0 0-15.884 3.801c-6.525-6.627-15.443-10.428-24.987-10.428-19.343 0-35.084 15.717-35.125 35.051-15.772 3.448-27.615 17.525-27.615 34.317 0 1.386.082 2.765.245 4.136-11.474 5.934-19.024 17.928-19.024 31.213 0 12.179 6.231 22.93 15.672 29.233-5.819 5.645-9.618 13.434-10.097 21.995-.041.065-.081.13-.12.196l-32.522 55.289a22.033 22.033 0 0 0-4.968 13.957v92.259c0 12.204 9.929 22.133 22.133 22.133h31.973l8.194 82.829c1.363 15.125 13.843 26.53 29.03 26.53h206.247c3.752 0 7.388-.7 10.83-2.082a30.85 30.85 0 0 0 10.894 1.984c7.863 0 15.725-2.992 21.712-8.979 5.8-5.8 8.995-13.512 8.995-21.713 0-8.2-3.195-15.912-8.995-21.712a30.426 30.426 0 0 0-5.355-4.27zm-18.864-24.34c-9.674-3.914-20.954-2.705-29.637 3.628l2.099-31.879h30.27l-2.732 28.251zm-74.939 66.092 3.263-94.343h29.09l-2.804 42.585a30.317 30.317 0 0 0-1.936 1.776c-11.639 11.639-11.962 30.372-.973 42.407l-.499 7.575h-26.141zm-40.155 0v-64.546a7.507 7.507 0 0 0-7.508-7.508 7.507 7.507 0 0 0-7.508 7.508v64.546h-25.13l-3.263-94.343h20.999a8.58 8.58 0 0 0 7.45-4.35c.244-.431.444-.885.6-1.355l6.473-19.682c.065-.2.09-.274.379-.274.289 0 .313.074.378.271l6.473 19.685c.154.471.355.924.6 1.355a8.58 8.58 0 0 0 7.449 4.35h20.999l-3.263 94.343h-25.128zm-81.313 0-6.213-94.343h29.09l3.263 94.343h-26.14zm240.798-230.87h-13.344l1.888-19.475 11.456 19.475zm-25.375-31.516-3.055 31.517h-34.507l3.284-49.866c.728-3.285 2.402-6.284 4.887-8.684a17.229 17.229 0 0 1 12.681-4.858c9.215.332 16.711 8.379 16.711 17.937l-.001 13.954zm-85.972 31.516 1.565-45.255a7.56 7.56 0 0 0-.001-.543c.003-.089.005-.179.005-.269 0-9.564 7.782-17.346 17.346-17.346s17.346 7.782 17.346 17.346c0 .336.022.667.065.991l-2.968 45.074h-33.358v.002zm-39.607 0c-3.804 0-7.519 1.547-10.182 4.234l-4.414 4.436a1.997 1.997 0 0 1-1.443.602c-.384 0-.947-.104-1.439-.597l-4.408-4.431a14.445 14.445 0 0 0-10.193-4.244h-24.583l-1.583-45.773-.001-.021c.003-.09.005-.181.005-.271 0-9.564 7.781-17.346 17.346-17.346 9.565 0 17.346 7.782 17.346 17.346 0 .092.002.184.006.276-.003.092-.006.184-.006.276v35.211a7.507 7.507 0 0 0 7.508 7.508 7.507 7.507 0 0 0 7.508-7.508v-35.211c0-.092-.002-.184-.006-.276.003-.092.006-.184.006-.276 0-9.564 7.782-17.346 17.346-17.346s17.346 7.782 17.346 17.346c0 .091.002.181.005.271l-.001.021-1.583 45.773h-24.58zm-154.537 0-3.12-31.525v-13.945c0-9.557 7.496-17.604 16.704-17.937 4.76-.149 9.27 1.559 12.688 4.858 2.486 2.4 4.16 5.399 4.887 8.684l3.284 49.866-34.443-.001zm49.491 0-2.968-45.074c.043-.324.065-.656.065-.992 0-9.564 7.782-17.346 17.346-17.346s17.346 7.782 17.346 17.346c0 .09.002.18.005.269-.007.179-.007.36-.001.543l1.565 45.255-33.358-.001zm-38.027-78.429c-11.087 0-20.107-9.021-20.107-20.108 0-8.998 6.047-16.961 14.704-19.365a7.513 7.513 0 0 0 5.115-9.609 20.112 20.112 0 0 1-1.04-6.374c0-11.087 9.02-20.108 20.107-20.108.162 0 .318.008.475.016a7.507 7.507 0 0 0 7.628-9.277 20.618 20.618 0 0 1-.594-4.873c0-11.087 9.021-20.108 20.108-20.108 6.938 0 13.299 3.512 17.016 9.394a7.504 7.504 0 0 0 5.153 3.401 7.495 7.495 0 0 0 5.961-1.61c3.63-2.982 8.037-4.558 12.743-4.558 3.803 0 7.518 1.074 10.742 3.107 2.126 1.34 4.782 1.528 7.077.5s3.921-3.137 4.334-5.616c1.618-9.717 9.955-16.768 19.824-16.768 10.659 0 19.477 8.323 20.075 18.951a7.511 7.511 0 0 0 10.814 6.314 19.914 19.914 0 0 1 8.878-2.066c8.356 0 15.929 5.259 18.847 13.086a7.506 7.506 0 0 0 12.617 2.398 20.108 20.108 0 0 1 14.931-6.649c11.087 0 20.107 9.021 20.107 20.108 0 7.013-3.569 13.411-9.547 17.113a7.507 7.507 0 0 0 6.319 13.508 20.006 20.006 0 0 1 6.318-1.021c11.087 0 20.107 9.021 20.107 20.108 0 8.512-4.087 16.614-10.186 20.221-7.386.626-14.276 3.732-19.695 8.963a33.169 33.169 0 0 0-2.392 2.566c-5.942-7.112-14.872-11.643-24.841-11.643-9.977 0-18.914 4.537-24.854 11.658-5.942-7.12-14.877-11.658-24.854-11.658s-18.914 4.537-24.854 11.658c-5.942-7.12-14.877-11.658-24.854-11.658-9.977 0-18.913 4.537-24.854 11.658-5.942-7.12-14.877-11.658-24.854-11.658-9.969 0-18.901 4.531-24.841 11.643a33.182 33.182 0 0 0-2.392-2.566c-6.376-6.154-14.778-9.369-23.652-9.061-.239.009-.479.021-.717.035a7.449 7.449 0 0 0-.872-.052zM95.39 221.249l1.931 19.508H83.915l11.475-19.508zM71.733 355.151v-92.259c0-1.372.39-2.654 1.066-3.742.407-.4.775-.854 1.092-1.357a7.093 7.093 0 0 1 4.959-2.017h155.747l4.234 4.255a16.94 16.94 0 0 0 12.077 5.016 16.94 16.94 0 0 0 12.082-5.022l4.23-4.25h155.747c1.927 0 3.677.771 4.96 2.019.316.503.683.955 1.09 1.355a7.071 7.071 0 0 1 1.067 3.743v92.259a7.125 7.125 0 0 1-7.117 7.117H270.506c-.061-.001.06-.001 0 0l-4.954-15.067c-2.119-6.436-7.867-10.595-14.643-10.595s-12.524 4.159-14.644 10.598l-4.953 15.064H78.85a7.125 7.125 0 0 1-7.117-7.117zM133.964 458.7l-8.054-81.416h29.932l6.213 94.343h-14.011c-7.363 0-13.412-5.529-14.08-12.927zm253.145 8.249c-6.117 6.117-16.071 6.117-22.188 0a15.533 15.533 0 0 1-3.166-4.597 7.51 7.51 0 0 0-9.103-4.055c-5.627 1.781-11.699.306-15.85-3.845-6.117-6.117-6.117-16.071 0-22.188a15.717 15.717 0 0 1 7.766-4.224 7.506 7.506 0 0 0 4.541-3.026 15.718 15.718 0 0 1 1.752-2.122c6.118-6.117 16.072-6.118 22.188-.001 3.05 3.051 4.672 7.121 4.568 11.46a7.512 7.512 0 0 0 4.555 7.086 15.625 15.625 0 0 1 4.937 3.326c6.117 6.115 6.117 16.068 0 22.186zM59.426 408.663a30.584 30.584 0 0 0-23.895 11.434 30.318 30.318 0 0 0-4.825-.387C13.774 419.709 0 433.484 0 450.414s13.774 30.706 30.706 30.706c2.298 0 4.572-.257 6.801-.768 5.316 4.084 11.772 6.291 18.604 6.291 16.932 0 30.706-13.775 30.706-30.706 0-.828-.037-1.661-.111-2.509a30.631 30.631 0 0 0 3.425-14.061c.001-16.929-13.774-30.704-30.705-30.704zm13.185 39.183a7.502 7.502 0 0 0-1.071 5.354c.176.997.261 1.893.261 2.738 0 8.651-7.039 15.689-15.689 15.689-4.315 0-8.339-1.731-11.332-4.872a7.506 7.506 0 0 0-8.23-1.791 15.625 15.625 0 0 1-5.844 1.14c-8.651 0-15.689-7.038-15.689-15.689s7.038-15.689 15.689-15.689c1.855 0 3.701.34 5.49 1.012a7.508 7.508 0 0 0 9.303-3.568c2.719-5.236 8.056-8.489 13.927-8.489 8.651 0 15.689 7.038 15.689 15.689 0 2.986-.867 5.917-2.504 8.476z" fill="#000000" opacity="1" data-original="#000000"></path></g></svg>