<svg xmlns="http://www.w3.org/2000/svg" version="1.1" xmlns:xlink="http://www.w3.org/1999/xlink" width="512" height="512" x="0" y="0" viewBox="0 0 512 512" style="enable-background:new 0 0 512 512" xml:space="preserve" class=""><g><path fill="#88c791" d="M247.996 424h-112l-16-192h144z" opacity="1" data-original="#88c791"></path><g fill="#35a872"><path d="M488 404.86a24 24 0 0 1-24 24h-56v-48h56a24 24 0 0 1 24 24z" fill="#35a872" opacity="1" data-original="#35a872" class=""></path><path d="M446.488 480.97a23.996 23.996 0 0 1-33.936 0l-39.592-39.592 33.936-33.936 39.592 39.592a23.996 23.996 0 0 1 0 33.936zM403.724 399.28l-33.936-33.937 39.592-39.592a23.996 23.996 0 0 1 33.936 0 23.996 23.996 0 0 1 0 33.936l-39.592 39.592z" fill="#35a872" opacity="1" data-original="#35a872" class=""></path></g><path fill="#f78a25" d="M348.206 468.24 83.37 428.746C72.266 427.09 64 416.9 64 404.86c0-12.036 8.266-22.23 19.37-23.886l264.836-39.494c35.83-5.343 67.794 24.54 67.794 63.38s-31.964 68.723-67.794 63.38z" opacity="1" data-original="#f78a25"></path><path fill="#35a872" d="M317.98 133.152a71.169 71.169 0 0 0 2.437-18.485c0-40.059-33.178-72.534-74.1-72.534a75.047 75.047 0 0 0-35.131 8.658A74.569 74.569 0 0 0 153.68 24c-40.927 0-74.1 32.474-74.1 72.533a71.008 71.008 0 0 0 9.948 36.284c-.229 0-.455-.017-.685-.017C53.027 132.8 24 161.215 24 196.267s29.031 63.466 64.842 63.466a65.581 65.581 0 0 0 33.235-8.97A74.124 74.124 0 0 0 190.733 296c35.507 0 65.167-24.449 72.4-57.083a65.306 65.306 0 0 0 48.018 20.816c35.811 0 64.842-28.415 64.842-63.466.007-32.795-25.411-59.776-58.013-63.115z" opacity="1" data-original="#35a872" class=""></path><path fill="#d46109" d="m166.413 441.132-15.91-2.376 1.506-34.245a8 8 0 0 1 15.988.7zM111.839 412.862A8.007 8.007 0 0 1 104 404.7l.558-26.877 16.052-2.4-.61 29.604a8 8 0 0 1-8.161 7.835z" opacity="1" data-original="#d46109"></path><circle cx="103.996" cy="408" r="80" fill="#eb423f" opacity="1" data-original="#eb423f"></circle><path fill="#eb423f" d="m136 376 8 32-40-16-40 16 8-32c-8-16-32-16-32-16v-.01a80.015 80.015 0 0 1 128 0v.01s-24 0-32 16z" opacity="1" data-original="#eb423f"></path><path fill="#35a872" d="m136 376 8 32-40-16-40 16 8-32c-8-16-32-16-32-16v-.01a80.015 80.015 0 0 1 128 0v.01s-24 0-32 16z" opacity="1" data-original="#35a872" class=""></path><path d="M16 408a87.985 87.985 0 0 0 164.57 43.33l166.456 24.823a65.118 65.118 0 0 0 9.609.717 63.28 63.28 0 0 0 31.812-8.6l18.353 18.357a32 32 0 1 0 45.255-45.254l-4.513-4.513H464a32 32 0 0 0 0-64h-22.627l7.6-7.6a32 32 0 0 0-45.254-45.255L384.425 339.3a63.3 63.3 0 0 0-37.4-5.731l-84.513 12.6 7.576-90.906a73.97 73.97 0 0 0 41.069 12.469c40.165 0 72.842-32.06 72.842-71.466 0-33.781-23.733-62.349-56.482-69.661a79.432 79.432 0 0 0 .9-11.939c0-44.407-36.832-80.534-82.1-80.534a83.759 83.759 0 0 0-33.186 6.861A82.537 82.537 0 0 0 153.684 16c-45.273 0-82.1 36.127-82.1 80.533a79.193 79.193 0 0 0 5.585 29.184C42.53 131.216 16 160.758 16 196.267c0 39.406 32.677 71.466 72.842 71.466a74.116 74.116 0 0 0 25.724-4.608l4.852 58.229A88.139 88.139 0 0 0 104 320c-.5 0-1.007.011-1.51.019-6.612-12.577-16.311-20.72-28.55-23.78a8 8 0 0 0-3.88 15.522 26.515 26.515 0 0 1 14.92 10.315A88.15 88.15 0 0 0 16 408zm161.009-49.078a88.486 88.486 0 0 0-41.151-32.952l-3.847-46.17a81.715 81.715 0 0 0 28.64 18.646l-.24.08 7.946 23.84.01.03.044.13a8 8 0 1 0 15.172-5.058l-4.772-14.317a84.819 84.819 0 0 0 11.92.847 83.384 83.384 0 0 0 14.6-1.3l-4.923 14.771a8 8 0 1 0 15.172 5.058l.044-.13.01-.03 7.946-23.84a7.991 7.991 0 0 0 .329-1.422 81.132 81.132 0 0 0 28.325-20.322l-5.984 71.81zm263.733 116.392a16 16 0 0 1-22.627 0l-16.73-16.73a71.934 71.934 0 0 0 17.92-27.335l21.437 21.437a16.02 16.02 0 0 1 0 22.628zM464 388.86a16 16 0 0 1 0 32h-32.457l-7.961-7.962a76.558 76.558 0 0 0-.778-21.469l2.569-2.569zm-48.971-57.539a16 16 0 0 1 22.628 22.627l-20.123 20.124a71.438 71.438 0 0 0-18.616-25.186c-.262-.226-.535-.433-.8-.655zM344 350.2V400a8 8 0 0 0 16 0v-51.015a48.85 48.85 0 0 1 28.472 12.02C400.882 371.7 408 387.687 408 404.86s-7.118 33.158-19.528 43.855a48.253 48.253 0 0 1-39.085 11.613l-53.381-7.961L296 416a8 8 0 0 0-16 0l.006 33.98-92.629-13.813a88.05 88.05 0 0 0-2.258-62.279L216 369.284V424a8 8 0 0 0 16 0v-57.1zM118.035 243.859a57.8 57.8 0 0 1-29.193 7.874C57.5 251.733 32 226.851 32 196.267S57.5 140.8 88.812 140.8h.124c.168.006.337.01.506.012a8 8 0 0 0 6.971-12.072 63.314 63.314 0 0 1-8.834-32.211C87.579 60.95 117.234 32 153.684 32a66.5 66.5 0 0 1 51.349 23.906 8 8 0 0 0 9.887 1.96 67.465 67.465 0 0 1 31.4-7.733c36.45 0 66.1 28.95 66.1 64.534a63.3 63.3 0 0 1-2.163 16.41 8 8 0 0 0 6.911 10.033C346.147 144.079 368 167.791 368 196.267c0 30.584-25.5 55.466-56.842 55.466a57.607 57.607 0 0 1-42.153-18.257 8 8 0 0 0-13.675 3.709C248.8 266.629 221.636 288 190.737 288c-27.049 0-51.1-15.821-61.272-40.306a8 8 0 0 0-11.43-3.835zm-25.787 93.116A89.057 89.057 0 0 1 96 360.009a8 8 0 0 0 16-.009 103.3 103.3 0 0 0-3.352-23.834 71.712 71.712 0 0 1 43.506 18.36c-8.473 2.542-18.183 7.643-23.309 17.9a8 8 0 0 0-.606 5.518l4.2 16.821-25.473-10.189a8.008 8.008 0 0 0-5.942 0l-25.468 10.185 4.2-16.821a8 8 0 0 0-.606-5.518c-5.126-10.253-14.836-15.354-23.309-17.9a71.786 71.786 0 0 1 36.407-17.547zm-28.821 40.33-7.188 28.755a8 8 0 0 0 10.732 9.368L104 400.616l37.029 14.812a8 8 0 0 0 10.732-9.368l-7.188-28.755c2.528-3.327 6.646-5.848 12.284-7.513a45.442 45.442 0 0 1 7.179-1.476 72 72 0 1 1-120.073 0c5.337.667 14.695 2.711 19.464 8.989z" fill="#000000" opacity="1" data-original="#000000"></path><circle cx="352" cy="432" r="8" fill="#000000" opacity="1" data-original="#000000"></circle><path d="M286.433 391.851a8.006 8.006 0 1 0-6.285-6.286 8.013 8.013 0 0 0 6.285 6.286z" fill="#000000" opacity="1" data-original="#000000"></path></g></svg>