<svg xmlns="http://www.w3.org/2000/svg" version="1.1" xmlns:xlink="http://www.w3.org/1999/xlink" width="512" height="512" x="0" y="0" viewBox="0 0 512 512" style="enable-background:new 0 0 512 512" xml:space="preserve" class=""><g><path fill="#eb423f" d="M296 472H24l16-320h240z" opacity="1" data-original="#eb423f"></path><path fill="#d13330" d="M360 472h-64l-16-320h64z" opacity="1" data-original="#d13330" class=""></path><path fill="#eba72e" d="M488 472h-64l-1-12.93v-.01L408 264h64l14.75 191.69v.01z" opacity="1" data-original="#eba72e"></path><path fill="#f7b030" d="M128 296H80v-64l24-16 24 16zM424 472H216l16-208h176z" opacity="1" data-original="#f7b030"></path><path d="M479.977 263.386A8 8 0 0 0 472 256H357.21l-5.22-104.4A8 8 0 0 0 344 144h-56v-40a71.975 71.975 0 0 0-96-67.872A71.975 71.975 0 0 0 96 104v40H40a8 8 0 0 0-7.99 7.6l-16 320A8 8 0 0 0 24 480h464a8 8 0 0 0 7.977-8.614zM456 438.422 473.052 464h-34.1zm21.676 3.669-13.914-20.87L448.84 272h15.752zM432.76 272l15 149.946-17.56 26.334L416.639 272zm-91.57-16h-15.057l-5.648-96h15.9zm-36.733-96 5.648 96h-16.9l-4.8-96zM216 48a56.064 56.064 0 0 1 56 56v40h-32v-40a71.886 71.886 0 0 0-26.727-55.931A57.34 57.34 0 0 1 216 48zm-24 5.414A56.069 56.069 0 0 1 224 104v40h-64v-40a56.069 56.069 0 0 1 32-50.586zM112 104a56.064 56.064 0 0 1 56-56c.915 0 1.823.026 2.727.069A71.883 71.883 0 0 0 144 104v40h-32zm96.592 360H32.41l15.2-304H96v51.719l-20.438 13.625A8 8 0 0 0 72 232v64a8 8 0 0 0 8 8h48a8 8 0 0 0 8-8v-64a8 8 0 0 0-3.562-6.656L112 211.719V160h112v24a8 8 0 0 0 16 0v-24h32.39l4.8 96H232a8 8 0 0 0-7.977 7.386zM104 225.615l16 10.666V288H88v-51.719zM239.408 272h161.184l14.769 192H224.639z" fill="#000000" opacity="1" data-original="#000000"></path><path d="M360 304a8 8 0 0 0-8 8v64a24.027 24.027 0 0 1-24 24h-16a24.027 24.027 0 0 1-24-24v-64a8 8 0 0 0-16 0v64a40.045 40.045 0 0 0 40 40h16a40.045 40.045 0 0 0 40-40v-64a8 8 0 0 0-8-8z" fill="#000000" opacity="1" data-original="#000000"></path></g></svg>