<svg xmlns="http://www.w3.org/2000/svg" version="1.1" xmlns:xlink="http://www.w3.org/1999/xlink" width="512" height="512" x="0" y="0" viewBox="0 0 682.667 682.667" style="enable-background:new 0 0 512 512" xml:space="preserve" class=""><g><defs><clipPath id="a" clipPathUnits="userSpaceOnUse"><path d="M0 512h512V0H0Z" fill="#000000" opacity="1" data-original="#000000"></path></clipPath></defs><g clip-path="url(#a)" transform="matrix(1.33333 0 0 -1.33333 0 682.667)"><path d="m0 0 73.988 32.521-2.775 20.47a10.98 10.98 0 0 1-10.889 9.515H-60.323a10.98 10.98 0 0 1-10.888-9.515l-2.776-20.47z" style="fill-opacity:1;fill-rule:nonzero;stroke:none" transform="translate(164.315 370)" fill="#b9c1cb" data-original="#b9c1cb"></path><path d="m0 0-13.032-5.729L-87.02 26.8l2.771 20.464a10.982 10.982 0 0 0 10.887 9.517h26.055a10.98 10.98 0 0 1-10.885-9.517L-60.963 26.8Z" style="fill-opacity:1;fill-rule:nonzero;stroke:none" transform="translate(177.348 375.725)" fill="#909ba5" data-original="#909ba5"></path><path d="M270.67 60.767H57.961V30.055H270.67Z" style="fill-opacity:1;fill-rule:nonzero;stroke:none" fill="#c6865c" data-original="#c6865c"></path><path d="M0 0h-200.838c-22.128 0-40.066-17.938-40.066-40.066v-227.498c0-22.128 17.938-40.066 40.066-40.066H0c22.128 0 40.066 17.938 40.066 40.066v227.498C40.066-17.938 22.128 0 0 0" style="fill-opacity:1;fill-rule:nonzero;stroke:none" transform="translate(264.734 402.522)" fill="#da4a54" data-original="#da4a54"></path><path d="M0 0h-22.755c-22.123 0-40.063 17.932-40.063 40.063v227.494c0 22.131 17.94 40.072 40.063 40.072H0c-22.131 0-40.071-17.941-40.071-40.072V40.063C-40.071 17.932-22.131 0 0 0" style="fill-opacity:1;fill-rule:nonzero;stroke:none" transform="translate(86.648 94.896)" fill="#d82e3d" data-original="#d82e3d"></path><path d="m0 0-5.064 29.752c-1.177 6.929-7.188 12-14.219 12h-59.429a14.43 14.43 0 0 1-14.226-12L-98.002 0" style="fill-opacity:1;fill-rule:nonzero;stroke:none" transform="translate(213.314 94.892)" fill="#4d5961" data-original="#4d5961"></path><path d="M0 0v-147.255c0-22.128 17.938-40.066 40.066-40.066h200.838c22.128 0 40.067 17.938 40.067 40.066V80.243c0 22.128-17.939 40.066-40.067 40.066H40.066C17.938 120.309 0 102.371 0 80.243V30" style="stroke-width:15;stroke-linecap:round;stroke-linejoin:round;stroke-miterlimit:10;stroke-dasharray:none;stroke-opacity:1" transform="translate(23.83 282.213)" fill="none" stroke="#000000" stroke-width="15" stroke-linecap="round" stroke-linejoin="round" stroke-miterlimit="10" stroke-dasharray="none" stroke-opacity="" data-original="#000000" class=""></path><path d="M0 0h-65.366c-10.706 0-19.385-8.679-19.385-19.384V-80.79c0-10.706 8.679-19.385 19.385-19.385H0c10.706 0 19.385 8.679 19.385 19.385v61.406C19.385-8.679 10.706 0 0 0" style="fill-opacity:1;fill-rule:nonzero;stroke:none" transform="translate(131.642 339.88)" fill="#d3effb" data-original="#d3effb"></path><path d="M0 0v-61.406c0-10.706 8.679-19.385 19.385-19.385h65.366c10.706 0 19.385 8.679 19.385 19.385V0c0 10.706-8.679 19.384-19.385 19.384H19.385C8.679 19.384 0 10.706 0 0" style="fill-opacity:1;fill-rule:nonzero;stroke:none" transform="translate(177.605 320.495)" fill="#d3effb" data-original="#d3effb"></path><path d="M0 0h-65.366c-10.706 0-19.385-8.679-19.385-19.384V-80.79c0-10.706 8.679-19.385 19.385-19.385H0c10.706 0 19.385 8.679 19.385 19.385v61.406C19.385-8.679 10.706 0 0 0Z" style="stroke-width:15;stroke-linecap:round;stroke-linejoin:round;stroke-miterlimit:10;stroke-dasharray:none;stroke-opacity:1" transform="translate(131.642 339.88)" fill="none" stroke="#000000" stroke-width="15" stroke-linecap="round" stroke-linejoin="round" stroke-miterlimit="10" stroke-dasharray="none" stroke-opacity="" data-original="#000000" class=""></path><path d="M0 0v-61.406c0-10.706 8.679-19.385 19.385-19.385h65.366c10.706 0 19.385 8.679 19.385 19.385V0c0 10.706-8.679 19.384-19.385 19.384H19.385C8.679 19.384 0 10.706 0 0Z" style="stroke-width:15;stroke-linecap:round;stroke-linejoin:round;stroke-miterlimit:10;stroke-dasharray:none;stroke-opacity:1" transform="translate(177.605 320.495)" fill="none" stroke="#000000" stroke-width="15" stroke-linecap="round" stroke-linejoin="round" stroke-miterlimit="10" stroke-dasharray="none" stroke-opacity="" data-original="#000000" class=""></path><path d="M0 0c0 12.751-10.336 23.088-23.087 23.088S-46.175 12.751-46.175 0c0-12.75 10.337-23.087 23.088-23.087C-10.336-23.087 0-12.75 0 0" style="fill-opacity:1;fill-rule:nonzero;stroke:none" transform="translate(93.385 169.478)" fill="#ecbe6b" data-original="#ecbe6b"></path><path d="M0 0c0 12.751-10.337 23.088-23.088 23.088-12.751 0-23.087-10.337-23.087-23.088 0-12.75 10.336-23.087 23.087-23.087S0-12.75 0 0" style="fill-opacity:1;fill-rule:nonzero;stroke:none" transform="translate(281.42 169.478)" fill="#ecbe6b" data-original="#ecbe6b"></path><path d="M0 0c0 12.751-10.336 23.088-23.087 23.088S-46.175 12.751-46.175 0c0-12.75 10.337-23.087 23.088-23.087C-10.336-23.087 0-12.75 0 0Z" style="stroke-width:15;stroke-linecap:round;stroke-linejoin:round;stroke-miterlimit:10;stroke-dasharray:none;stroke-opacity:1" transform="translate(93.385 169.478)" fill="none" stroke="#000000" stroke-width="15" stroke-linecap="round" stroke-linejoin="round" stroke-miterlimit="10" stroke-dasharray="none" stroke-opacity="" data-original="#000000" class=""></path><path d="M0 0c0 12.751-10.337 23.088-23.088 23.088-12.751 0-23.087-10.337-23.087-23.088 0-12.75 10.336-23.087 23.087-23.087S0-12.75 0 0Z" style="stroke-width:15;stroke-linecap:round;stroke-linejoin:round;stroke-miterlimit:10;stroke-dasharray:none;stroke-opacity:1" transform="translate(281.42 169.478)" fill="none" stroke="#000000" stroke-width="15" stroke-linecap="round" stroke-linejoin="round" stroke-miterlimit="10" stroke-dasharray="none" stroke-opacity="" data-original="#000000" class=""></path><path d="m0 0-2.775 20.47a10.981 10.981 0 0 1-10.889 9.515h-120.648a10.978 10.978 0 0 1-10.887-9.515L-147.976 0" style="stroke-width:15;stroke-linecap:round;stroke-linejoin:round;stroke-miterlimit:10;stroke-dasharray:none;stroke-opacity:1" transform="translate(238.304 402.52)" fill="none" stroke="#000000" stroke-width="15" stroke-linecap="round" stroke-linejoin="round" stroke-miterlimit="10" stroke-dasharray="none" stroke-opacity="" data-original="#000000" class=""></path><path d="M0 0c0 5.75-4.661 10.412-10.412 10.412-5.75 0-10.412-4.662-10.412-10.412 0-5.75 4.662-10.412 10.412-10.412C-4.661-10.412 0-5.75 0 0" style="fill-opacity:1;fill-rule:nonzero;stroke:none" transform="translate(280.658 370.94)" fill="#e7ecf1" data-original="#e7ecf1"></path><path d="M0 0c0 5.75-4.662 10.412-10.412 10.412-5.751 0-10.412-4.662-10.412-10.412 0-5.75 4.661-10.412 10.412-10.412C-4.662-10.412 0-5.75 0 0" style="fill-opacity:1;fill-rule:nonzero;stroke:none" transform="translate(68.797 370.94)" fill="#e7ecf1" data-original="#e7ecf1"></path><path d="M0 0c0 5.75-4.661 10.412-10.412 10.412-5.75 0-10.412-4.662-10.412-10.412 0-5.75 4.662-10.412 10.412-10.412C-4.661-10.412 0-5.75 0 0Z" style="stroke-width:15;stroke-linecap:round;stroke-linejoin:round;stroke-miterlimit:10;stroke-dasharray:none;stroke-opacity:1" transform="translate(280.658 370.94)" fill="none" stroke="#000000" stroke-width="15" stroke-linecap="round" stroke-linejoin="round" stroke-miterlimit="10" stroke-dasharray="none" stroke-opacity="" data-original="#000000" class=""></path><path d="M0 0c0 5.75-4.662 10.412-10.412 10.412-5.751 0-10.412-4.662-10.412-10.412 0-5.75 4.661-10.412 10.412-10.412C-4.662-10.412 0-5.75 0 0Z" style="stroke-width:15;stroke-linecap:round;stroke-linejoin:round;stroke-miterlimit:10;stroke-dasharray:none;stroke-opacity:1" transform="translate(68.797 370.94)" fill="none" stroke="#000000" stroke-width="15" stroke-linecap="round" stroke-linejoin="round" stroke-miterlimit="10" stroke-dasharray="none" stroke-opacity="" data-original="#000000" class=""></path><path d="m0 0-5.064 29.752c-1.177 6.929-7.188 12-14.219 12h-59.429a14.43 14.43 0 0 1-14.226-12L-98.002 0" style="stroke-width:15;stroke-linecap:round;stroke-linejoin:round;stroke-miterlimit:10;stroke-dasharray:none;stroke-opacity:1" transform="translate(213.314 94.892)" fill="none" stroke="#000000" stroke-width="15" stroke-linecap="round" stroke-linejoin="round" stroke-miterlimit="10" stroke-dasharray="none" stroke-opacity="" data-original="#000000" class=""></path><path d="M0 0h-57.262c-6.27 0-11.353 5.083-11.353 11.354 0 6.27 5.083 11.353 11.353 11.353H0c6.271 0 11.354-5.083 11.354-11.353C11.354 5.083 6.271 0 0 0" style="fill-opacity:1;fill-rule:nonzero;stroke:none" transform="translate(192.946 358.646)" fill="#ecbe6b" data-original="#ecbe6b"></path><path d="M0 0h-57.262c-6.27 0-11.353 5.083-11.353 11.354 0 6.27 5.083 11.353 11.353 11.353H0c6.271 0 11.354-5.083 11.354-11.353C11.354 5.083 6.271 0 0 0Z" style="stroke-width:15;stroke-linecap:round;stroke-linejoin:round;stroke-miterlimit:10;stroke-dasharray:none;stroke-opacity:1" transform="translate(192.946 358.646)" fill="none" stroke="#000000" stroke-width="15" stroke-linecap="round" stroke-linejoin="round" stroke-miterlimit="10" stroke-dasharray="none" stroke-opacity="" data-original="#000000" class=""></path><path d="M0 0h92.803" style="stroke-width:15;stroke-linecap:round;stroke-linejoin:round;stroke-miterlimit:10;stroke-dasharray:none;stroke-opacity:1" transform="translate(117.911 204.449)" fill="none" stroke="#000000" stroke-width="15" stroke-linecap="round" stroke-linejoin="round" stroke-miterlimit="10" stroke-dasharray="none" stroke-opacity="" data-original="#000000" class=""></path><path d="M0 0h92.803" style="stroke-width:15;stroke-linecap:round;stroke-linejoin:round;stroke-miterlimit:10;stroke-dasharray:none;stroke-opacity:1" transform="translate(117.911 182.227)" fill="none" stroke="#000000" stroke-width="15" stroke-linecap="round" stroke-linejoin="round" stroke-miterlimit="10" stroke-dasharray="none" stroke-opacity="" data-original="#000000" class=""></path><path d="m0 0-9.535-26.167-22.319-61.229h-57.731l41.389 64.136L-33.188 0Z" style="fill-opacity:1;fill-rule:nonzero;stroke:none" transform="translate(97.088 94.896)" fill="#b9c1cb" data-original="#b9c1cb"></path><path d="m0 0-39.739-87.396h-29.536L-12.879 0Z" style="fill-opacity:1;fill-rule:nonzero;stroke:none" transform="translate(76.778 94.896)" fill="#909ba5" data-original="#909ba5"></path><path d="M0 0h-57.739l-22.32 61.229-9.534 26.167h33.197l15.007-23.26z" style="fill-opacity:1;fill-rule:nonzero;stroke:none" transform="translate(321.135 7.5)" fill="#b9c1cb" data-original="#b9c1cb"></path><path d="m0 0 39.738-87.396h29.537L12.879 0Z" style="fill-opacity:1;fill-rule:nonzero;stroke:none" transform="translate(251.856 94.896)" fill="#909ba5" data-original="#909ba5"></path><path d="M0 0h33.188l-9.535-26.167H0a39.954 39.954 0 0 0-15.008 2.907z" style="fill-opacity:1;fill-rule:nonzero;stroke:none" transform="translate(63.9 94.896)" fill="#909ba5" data-original="#909ba5"></path><path d="M0 0a39.99 39.99 0 0 0-15.008-2.907H-38.67l-9.534 26.167h33.196z" style="fill-opacity:1;fill-rule:nonzero;stroke:none" transform="translate(279.746 71.636)" fill="#909ba5" data-original="#909ba5"></path><path d="M0 0h-57.737l56.396 87.392h33.192Z" style="stroke-width:15;stroke-linecap:round;stroke-linejoin:round;stroke-miterlimit:10;stroke-dasharray:none;stroke-opacity:1" transform="translate(65.237 7.5)" fill="none" stroke="#000000" stroke-width="15" stroke-linecap="round" stroke-linejoin="round" stroke-miterlimit="10" stroke-dasharray="none" stroke-opacity="" data-original="#000000" class=""></path><path d="M0 0h57.737L1.341 87.392h-33.192z" style="stroke-width:15;stroke-linecap:round;stroke-linejoin:round;stroke-miterlimit:10;stroke-dasharray:none;stroke-opacity:1" transform="translate(263.394 7.5)" fill="none" stroke="#000000" stroke-width="15" stroke-linecap="round" stroke-linejoin="round" stroke-miterlimit="10" stroke-dasharray="none" stroke-opacity="" data-original="#000000" class=""></path><path d="M0 0h-159.339" style="stroke-width:15;stroke-linecap:round;stroke-linejoin:round;stroke-miterlimit:10;stroke-dasharray:none;stroke-opacity:1" transform="translate(243.984 60.767)" fill="none" stroke="#000000" stroke-width="15" stroke-linecap="round" stroke-linejoin="round" stroke-miterlimit="10" stroke-dasharray="none" stroke-opacity="" data-original="#000000" class=""></path><path d="M0 0h-181.709" style="stroke-width:15;stroke-linecap:round;stroke-linejoin:round;stroke-miterlimit:10;stroke-dasharray:none;stroke-opacity:1" transform="translate(255.169 30.059)" fill="none" stroke="#000000" stroke-width="15" stroke-linecap="round" stroke-linejoin="round" stroke-miterlimit="10" stroke-dasharray="none" stroke-opacity="" data-original="#000000" class=""></path><path d="M0 0h150.8v43.896H0c-11.965 0-21.664-9.7-21.664-21.665v-.566C-21.664 9.7-11.965 0 0 0" style="fill-opacity:1;fill-rule:nonzero;stroke:none" transform="translate(353.7 460.604)" fill="#909ba5" data-original="#909ba5"></path><path d="M0 0h150.8v43.896H0c-11.965 0-21.664-9.7-21.664-21.665v-.566C-21.664 9.7-11.965 0 0 0Z" style="stroke-width:15;stroke-linecap:round;stroke-linejoin:round;stroke-miterlimit:10;stroke-dasharray:none;stroke-opacity:1" transform="translate(353.7 460.604)" fill="none" stroke="#000000" stroke-width="15" stroke-linecap="round" stroke-linejoin="round" stroke-miterlimit="10" stroke-dasharray="none" stroke-opacity="" data-original="#000000" class=""></path><path d="M321.131 7.5H504.5v92.656H321.131Z" style="fill-opacity:1;fill-rule:nonzero;stroke:none" fill="#909ba5" data-original="#909ba5"></path><path d="M0 0h-23.803v-92.656h183.369V0H30" style="stroke-width:15;stroke-linecap:round;stroke-linejoin:round;stroke-miterlimit:10;stroke-dasharray:none;stroke-opacity:1" transform="translate(344.934 100.156)" fill="none" stroke="#000000" stroke-width="15" stroke-linecap="round" stroke-linejoin="round" stroke-miterlimit="10" stroke-dasharray="none" stroke-opacity="" data-original="#000000" class=""></path><path d="M0 0h-80.532c-10.085 0-18.261 8.176-18.261 18.261v29.986c0 10.086 8.176 18.261 18.261 18.261H0c10.085 0 18.261-8.175 18.261-18.261V18.261C18.261 8.176 10.085 0 0 0" style="fill-opacity:1;fill-rule:nonzero;stroke:none" transform="translate(450.83 330.63)" fill="#81a7c6" data-original="#81a7c6"></path><path d="M0 0h-80.532c-10.085 0-18.261 8.176-18.261 18.261v29.986c0 10.086 8.176 18.261 18.261 18.261H0c10.085 0 18.261-8.175 18.261-18.261V18.261C18.261 8.176 10.085 0 0 0Z" style="stroke-width:15;stroke-linecap:round;stroke-linejoin:round;stroke-miterlimit:10;stroke-dasharray:none;stroke-opacity:1" transform="translate(450.83 330.63)" fill="none" stroke="#000000" stroke-width="15" stroke-linecap="round" stroke-linejoin="round" stroke-miterlimit="10" stroke-dasharray="none" stroke-opacity="" data-original="#000000" class=""></path><path d="M0 0v-360.449" style="stroke-width:15;stroke-linecap:round;stroke-linejoin:round;stroke-miterlimit:10;stroke-dasharray:none;stroke-opacity:1" transform="translate(504.5 460.604)" fill="none" stroke="#000000" stroke-width="15" stroke-linecap="round" stroke-linejoin="round" stroke-miterlimit="10" stroke-dasharray="none" stroke-opacity="" data-original="#000000" class=""></path><path d="M437.831 397.139h-54.536v63.465h54.536z" style="stroke-width:15;stroke-linecap:round;stroke-linejoin:round;stroke-miterlimit:10;stroke-dasharray:none;stroke-opacity:1" fill="none" stroke="#000000" stroke-width="15" stroke-linecap="round" stroke-linejoin="round" stroke-miterlimit="10" stroke-dasharray="none" stroke-opacity="" data-original="#000000" class=""></path></g></g></svg>